<?xml version="1.0" encoding="UTF-8" standalone="no"?>
<svg width="354px" height="48px" viewBox="0 0 354 48" version="1.1" xmlns="http://www.w3.org/2000/svg" xmlns:xlink="http://www.w3.org/1999/xlink">
    <!-- Generator: Sketch 3.7 (28169) - http://www.bohemiancoding.com/sketch -->
    <title>Zigzag Lines</title>
    <desc>Created with Sketch.</desc>
    <defs></defs>
    <g id="Welcome" stroke="none" stroke-width="1" fill="none" fill-rule="evenodd" stroke-linecap="square">
        <g id="Desktop-HD" transform="translate(-276.000000, -382.000000)" stroke="#FFFFFF" stroke-width="10">
            <g id="Zigzag-Line-Group" transform="translate(283.000000, 304.000000)">
                <g id="Zigzag-Lines" transform="translate(0.000000, 85.000000)">
                    <g id="Zigzag-Copy-4" transform="translate(272.000000, 0.000000)">
                        <path d="M0.2125,0.2125 L33.7228804,33.7228804" id="Line" transform="translate(17.000000, 17.000000) rotate(-90.000000) translate(-17.000000, -17.000000) "></path>
                        <path d="M34.2125,0.2125 L67.7228804,33.7228804" id="Line-Copy" transform="translate(51.000000, 17.000000) rotate(-180.000000) translate(-51.000000, -17.000000) "></path>
                    </g>
                    <g id="Zigzag-Copy-3" transform="translate(204.000000, 0.000000)">
                        <path d="M0.2125,0.2125 L33.7228804,33.7228804" id="Line" transform="translate(17.000000, 17.000000) rotate(-90.000000) translate(-17.000000, -17.000000) "></path>
                        <path d="M34.2125,0.2125 L67.7228804,33.7228804" id="Line-Copy" transform="translate(51.000000, 17.000000) rotate(-180.000000) translate(-51.000000, -17.000000) "></path>
                    </g>
                    <g id="Zigzag-Copy-2" transform="translate(136.000000, 0.000000)">
                        <path d="M0.2125,0.2125 L33.7228804,33.7228804" id="Line" transform="translate(17.000000, 17.000000) rotate(-90.000000) translate(-17.000000, -17.000000) "></path>
                        <path d="M34.2125,0.2125 L67.7228804,33.7228804" id="Line-Copy" transform="translate(51.000000, 17.000000) rotate(-180.000000) translate(-51.000000, -17.000000) "></path>
                    </g>
                    <g id="Zigzag-Copy" transform="translate(68.000000, 0.000000)">
                        <path d="M0.2125,0.2125 L33.7228804,33.7228804" id="Line" transform="translate(17.000000, 17.000000) rotate(-90.000000) translate(-17.000000, -17.000000) "></path>
                        <path d="M34.2125,0.2125 L67.7228804,33.7228804" id="Line-Copy" transform="translate(51.000000, 17.000000) rotate(-180.000000) translate(-51.000000, -17.000000) "></path>
                    </g>
                    <g id="Zigzag">
                        <path d="M0.2125,0.2125 L33.7228804,33.7228804" id="Line" transform="translate(17.000000, 17.000000) rotate(-90.000000) translate(-17.000000, -17.000000) "></path>
                        <path d="M34.2125,0.2125 L67.7228804,33.7228804" id="Line-Copy" transform="translate(51.000000, 17.000000) rotate(-180.000000) translate(-51.000000, -17.000000) "></path>
                    </g>
                </g>
            </g>
        </g>
    </g>
</svg>