<?xml version="1.0" encoding="UTF-8"?>
<svg width="472px" height="384px" viewBox="0 0 472 384" version="1.1" xmlns="http://www.w3.org/2000/svg" xmlns:xlink="http://www.w3.org/1999/xlink">
    <!-- Generator: Sketch 46.2 (44496) - http://www.bohemiancoding.com/sketch -->
    <title>Shape</title>
    <desc>Created with Sketch.</desc>
    <defs></defs>
    <g id="Page-1" stroke="none" stroke-width="1" fill="none" fill-rule="evenodd">
        <g id="social-twitter" fill-rule="nonzero" fill="#FFFFFF">
            <path d="M472,45.5 C454.6,53.2 436,58.4 416.4,60.8 C436.4,48.8 451.8,29.8 459,7.2 C440.3,18.3 419.6,26.4 397.5,30.7 C379.8,11.8 354.6,0 326.8,0 C273.3,0 230,43.4 230,96.9 C230,104.5 230.8,111.9 232.5,119 C152,115 80.6,76.4 32.9,17.7 C24.6,32 19.8,48.7 19.8,66.4 C19.8,100 37,129.7 63,147.1 C47,146.7 32,142.3 19,135 C19,135.4 19,135.8 19,136.2 C19,183.2 52.4,222.3 96.7,231.2 C88.6,233.4 80,234.6 71.2,234.6 C65,234.6 58.9,234 53,232.8 C65.3,271.3 101.1,299.3 143.5,300.1 C110.4,326.1 68.6,341.6 23.2,341.6 C15.4,341.6 7.7,341.1 0.1,340.2 C42.8,368 93.7,384 148.3,384 C326.6,384 424,236.3 424,108.2 C424,104 423.9,99.8 423.7,95.7 C442.6,82 459,65 472,45.5 Z" id="Shape"></path>
        </g>
    </g>
</svg>