<?xml version="1.0" encoding="UTF-8"?>
<svg width="448px" height="386px" viewBox="0 0 448 386" version="1.1" xmlns="http://www.w3.org/2000/svg" xmlns:xlink="http://www.w3.org/1999/xlink">
    <!-- Generator: Sketch 46.2 (44496) - http://www.bohemiancoding.com/sketch -->
    <title>Shape</title>
    <desc>Created with Sketch.</desc>
    <defs></defs>
    <g id="Page-1" stroke="none" stroke-width="1" fill="none" fill-rule="evenodd">
        <g id="social-vimeo" fill-rule="nonzero" fill="#FFFFFF">
            <path d="M444.9,51 C439.9,27.6 427.4,12.2 404.3,4.7 C381.2,-2.8 339.4,0.2 310.2,21.5 C280.3,43.3 262.6,81.2 256.4,105.3 C271.1,99 280.4,97.6 295.4,98.4 C310.4,99.2 319.9,110.4 320.3,123.7 C320.6,133.5 320.1,142.4 316.7,151.4 C305.9,180.1 289,207.9 269.1,232.2 C266.2,235.8 262.7,239.1 259.1,242.1 C248.9,250.4 240.3,248.2 233.7,236.9 C228.3,227.6 224.7,218 221.5,207.8 C209.1,168.1 204.7,126.9 197.7,86.2 C194.4,66.7 190.7,46.4 179.7,29.3 C168.1,11.5 151.1,4.7 129.7,7.3 C115,9.1 92.8,24.8 81.9,33.7 C81.9,33.7 25.9,80.6 0.1,105.1 L21.3,132.1 C21.3,132.1 39.2,119.6 48.8,113.8 C54.5,110.4 61.2,109.7 66,114 C70.5,117.9 75.6,123 78.3,128.1 C84,138.8 89.5,150 93,161.5 C106.2,205.8 118.5,250.2 130.8,294.8 C137.1,317.6 144.7,339 158.8,358.4 C178.1,385 198.4,391.1 229.7,379.9 C255.1,370.8 276.3,353.7 295.7,336 C328.8,305.8 354.8,270.6 381.2,234.8 C401.6,207.1 418.5,179.1 432.6,147.8 C446.5,116.8 452,84.3 444.9,51 Z" id="Shape"></path>
        </g>
    </g>
</svg>